<svg width="229" height="155" viewBox="0 0 229 155" fill="none" xmlns="http://www.w3.org/2000/svg">
<g clip-path="url(#clip0)">
<path d="M210.788 154.419C200.149 154.419 193.84 148.975 193.357 141.134H203.529C203.529 143.748 204.977 147.227 211.27 147.443C215.632 147.443 218.046 144.83 218.046 142.865C217.563 139.819 213.684 139.602 209.822 138.936C205.46 138.304 202.081 137.421 199.65 136.339C196.27 134.591 194.323 130.879 194.323 126.966C194.323 119.991 200.149 114.547 210.305 114.547C219.994 114.547 226.287 119.558 226.753 127.183H217.08C217.08 125.235 216.598 121.955 210.788 121.955C206.909 121.955 204.495 122.605 204.012 125.435C204.012 129.364 212.236 129.147 218.529 130.662C224.339 132.194 228.218 135.89 228.218 141.134C228.218 150.723 220.477 154.419 210.788 154.419Z" fill="#94A1B2"/>
<path d="M25.4311 90.0826L58.827 70.6877L76.7402 101.42H31.724" fill="#94A1B2"/>
<path d="M95.657 153.262V114.472V153.262Z" fill="#94A1B2"/>
<path d="M95.657 153.262V114.472" stroke="#94A1B2" stroke-width="9.7723"/>
<path d="M9.93084 134.442C9.93084 140.535 15.2582 145.546 21.0517 145.546C27.3613 145.546 32.1892 140.535 32.1892 134.442C32.1892 128.565 27.3613 123.338 21.0517 123.338C15.2582 123.338 9.93084 128.565 9.93084 134.442ZM20.5689 154.486C9.93084 154.486 0.74115 145.546 0.74115 134.442C0.74115 123.338 9.93084 114.614 20.5689 114.614C24.9307 114.614 28.8097 115.713 32.1892 118.094V115.047H41.8783V153.604H32.1892V151.207C29.2925 153.388 24.9307 154.486 20.5689 154.486Z" fill="#94A1B2"/>
<path d="M149.828 101.412L103.363 20.3703L136.759 0.759079L194.843 101.412" fill="#94A1B2"/>
<path d="M54.4639 134.442C54.4639 140.535 59.3084 145.546 65.6014 145.546C71.3949 145.546 76.7389 140.535 76.7389 134.442C76.7389 128.565 71.3949 123.338 65.6014 123.338C59.3084 123.338 54.4639 128.565 54.4639 134.442ZM65.1186 154.486C53.9811 154.486 45.2742 145.546 45.2742 134.442C45.2742 123.338 53.9811 114.614 65.1186 114.614C69.4637 114.614 73.3427 115.713 76.7389 118.094V101.762H86.4114V153.604H76.7389V151.207C73.3427 153.388 69.4637 154.486 65.1186 154.486Z" fill="#94A1B2"/>
<path d="M64.6414 55.4437L98.52 36.2818L135.795 101.409H100.451V110.998H90.7787V101.409" fill="#94A1B2"/>
<path d="M221.942 111.301C219.511 111.301 217.097 109.12 217.097 106.506C217.097 103.892 219.511 101.712 221.942 101.712C224.838 101.712 226.786 103.892 226.786 106.506C226.786 109.12 224.838 111.301 221.942 111.301ZM221.942 102.377C219.511 102.377 218.063 104.325 218.063 106.506C218.063 108.687 219.511 110.652 221.942 110.652C224.356 110.652 225.804 108.687 225.804 106.506C225.804 104.325 224.356 102.377 221.942 102.377Z" fill="#94A1B2"/>
<path d="M222.94 109.137L221.975 106.956H221.009V109.137H220.277V103.909H222.458C222.94 103.909 223.906 104.575 223.906 105.441C223.906 106.307 223.423 106.739 222.94 106.956L223.906 109.137H222.94ZM221.975 104.575H221.009V106.307H221.975C222.94 106.307 222.94 106.09 222.94 105.441C222.94 104.991 222.94 104.575 221.975 104.575Z" fill="#94A1B2"/>
<path d="M158.014 134.442C158.014 140.535 162.858 145.546 169.151 145.546C174.962 145.546 180.272 140.535 180.272 134.442C180.272 128.565 174.962 123.338 169.151 123.338C162.858 123.338 158.014 128.565 158.014 134.442ZM168.652 154.486C157.531 154.486 148.824 145.546 148.824 134.442C148.824 123.338 157.531 114.614 168.652 114.614C173.014 114.614 176.893 115.713 180.272 118.094V115.047H189.479V153.604H180.272V151.207C176.893 153.388 173.014 154.486 168.652 154.486Z" fill="#94A1B2"/>
<path d="M113.514 134.441C113.514 140.534 118.841 145.545 124.651 145.545C130.944 145.545 135.789 140.534 135.789 134.441C135.789 128.564 130.944 123.337 124.651 123.337C118.841 123.337 113.514 128.564 113.514 134.441ZM135.789 101.761H145.461V153.603H135.789V151.206C132.875 153.387 128.996 154.485 124.651 154.485C113.514 154.485 104.324 145.545 104.324 134.441C104.324 123.337 113.514 114.613 124.651 114.613C128.996 114.613 132.875 115.712 135.789 118.093V101.761Z" fill="#94A1B2"/>
</g>
<defs>
<clipPath id="clip0">
<rect width="229" height="154.893" fill="white"/>
</clipPath>
</defs>
</svg>
