<svg width="298" height="63" viewBox="0 0 298 63" fill="none" xmlns="http://www.w3.org/2000/svg">
<path fill-rule="evenodd" clip-rule="evenodd" d="M46.1854 60.2821L48.3307 62.316L50.0957 60.2821H59.0002L60.9497 57.4591H47.3379L46.9491 57.0474H42.7327L42.4819 57.4594H1.91118L0 60.2821H46.1854ZM45.0624 54.4989H39.4726L38.0084 53.0873H4.72317L6.64512 50.2379H35.1266L35.2368 49.6123H40.8515L41.0003 50.2379H65.6759L63.7261 53.0873H43.9398C43.9398 53.0873 44.0667 53.8145 45.0624 54.4989ZM37.5812 45.9156H68.6681L70.5984 43.0821H37.5342L37.9838 42.4058H28.1001L27.6507 43.0824H11.5596L9.63494 45.9156H30.698L32.0242 47.1401H38.596L37.5812 45.9156ZM41.2865 38.4239H73.7553L75.6883 35.585H43.2527L43.0183 34.9835H33.2756L32.9032 35.5853H16.6525L14.7359 38.4239H29.7981C29.7981 38.4239 30.8019 38.6538 30.0987 39.6187H40.2027L41.2865 38.4239ZM46.5892 31.2177H78.559L80.5028 28.3845H49.3443L49.1566 27.7882H38.4128L38.0102 28.3845H21.464L19.5339 31.2177H34.9961C34.9961 31.2177 35.7873 31.5788 35.2359 32.3299H46.1177C46.1177 32.3299 46.1285 31.8728 46.5892 31.2177ZM51.4366 25.1381H40.3922C41.0018 24.1625 39.5319 24.0023 39.5319 24.0023H24.2682L26.1763 21.1607H43.1252L43.5551 20.5084H54.6686L55.1485 21.161H85.2262L83.2765 24.002H52.0958C52.0958 24.002 51.624 24.502 51.4366 25.1381ZM59.1819 16.88H88.2559L90.1835 14.0414H61.6664L60.9494 12.8119H49.0282L48.1127 14.0414H31.1695L29.2419 16.88H44.3152C44.3152 16.88 46.1189 16.8905 45.3025 18.0508H58.7353C58.7353 18.0508 58.7877 17.6527 59.1819 16.8803V16.88ZM62.0795 6.89929H94.9094L92.971 9.73522H64.9586C64.167 9.73522 63.6348 10.9273 63.6348 10.9273H50.3511C51.0241 9.7942 49.5518 9.73522 49.5518 9.73522H33.9681L35.8709 6.89929H60.4138L61.4425 5.98232L63.9051 2.7587H63.315L65.5211 0H67.2006L65.1544 2.7587H64.658L61.9694 6.09189L62.0795 6.89929ZM114.065 7.0391L106.35 18.2736H100.051L94.7316 25.9425H101.347L82.496 53.411C82.496 53.411 81.0315 55.5973 81.0315 58.7248C81.0315 61.8442 85.0688 62.3172 85.0688 62.3172H99.4116L103.931 54.357H96.8301C96.8301 54.357 94.0891 54.0417 95.3713 51.8737C96.6676 49.6658 113.158 25.9425 113.158 25.9425H121.478L126.039 18.2736H118.42L126.072 7.0388L114.065 7.0391ZM158.805 62.3169L195.272 7.0382H183.072L146.624 62.3169H158.805ZM261.269 62.3169L297.731 7.0382H285.553L249.094 62.3169H261.269ZM128.896 36.6265H148.228C148.228 36.6265 150.389 33.0367 151.04 30.067C151.699 27.0972 148.161 26.3111 144.201 26.3111C140.266 26.3111 134.213 26.7122 128.896 36.6265ZM153.219 44.3622H123.891C123.891 44.3622 120.902 47.9067 120.565 50.922C120.565 50.922 120.565 53.4107 123.673 53.4107H146.231L140.324 62.3172H121.953C121.953 62.3172 108.002 62.3172 108.002 54.357C108.002 54.357 107.872 48.4067 118.103 34.6003C128.337 20.77 135.341 20.238 147.1 20.238C158.856 20.238 162.046 23.8544 161.679 26.8619C161.285 30.2915 160.871 32.0958 153.219 44.3622H153.219ZM230.305 36.6265H249.636C249.636 36.6265 251.803 33.0367 252.449 30.067C253.105 27.0972 249.553 26.3111 245.607 26.3111C241.663 26.3111 235.61 26.7122 230.305 36.6265ZM254.619 44.3622H225.294C225.294 44.3622 222.297 47.9067 221.974 50.922C221.974 50.922 221.974 53.4107 225.076 53.4107H247.656L241.738 62.3172H223.369C223.369 62.3172 209.407 62.3172 209.407 54.357C209.407 54.357 209.264 48.4067 219.511 34.6003C229.742 20.77 236.747 20.238 248.505 20.238C260.264 20.238 263.435 23.8544 263.099 26.8619C262.688 30.2915 262.274 32.0958 254.619 44.3622ZM183.319 50.9211C183.319 50.9211 183.319 53.4125 186.411 53.4125H206.084L200.174 62.3163H184.715C184.715 62.3163 169.664 62.7762 170.764 54.3561C170.764 54.3561 170.609 48.4058 180.846 34.5994C180.846 34.5994 190.112 20.2371 210.105 20.2371H223.317L217.349 29.0503H206.71C205.742 29.0503 198.012 29.8281 191.088 37.3288C184.169 44.8238 183.612 48.4058 183.319 50.9211Z" fill="#94A1B2"/>
</svg>
