<svg width="243" height="87" viewBox="0 0 243 87" fill="none" xmlns="http://www.w3.org/2000/svg">
<path fill-rule="evenodd" clip-rule="evenodd" d="M27.5565 86.8524C20.3732 86.5671 14.4971 84.6017 9.90202 80.9508C9.02479 80.2537 6.9355 78.1624 6.23439 77.2805C4.37077 74.9374 3.10447 72.6573 2.25938 70.1274C-0.34084 62.3395 0.997779 52.1194 6.08706 40.9035C10.4451 31.3015 17.169 21.7778 28.9005 8.58789C30.6288 6.64726 35.7743 0.970703 35.8078 0.970703C35.8199 0.970703 35.54 1.45686 35.1864 2.04815C32.1362 7.15753 29.5259 13.1756 28.1043 18.3854C25.8201 26.7453 26.096 33.9198 28.9112 39.4825C30.8531 43.3149 34.1826 46.635 37.9266 48.4698C44.481 51.6814 54.077 51.9466 65.7958 49.2473C66.6027 49.0604 106.584 38.4473 154.643 25.6618C202.702 12.8749 242.03 2.42182 242.036 2.43053C242.049 2.44191 130.381 50.2249 72.4118 75.0151C63.2317 78.9399 60.7768 79.931 56.4603 81.4464C45.4279 85.3209 35.5447 87.1691 27.5565 86.8517V86.8524Z" fill="#94A1B2"/>
</svg>
